Song1:
  .byte 255
  .word Square1
  .word Square2
  .word Triangle
  .word Noise
  .word volume_envelopes
  .word pitch_envelopes
  .word duty_envelopes

volume_envelopes:
  .word volume_envelope_0
  .word volume_envelope_1
  .word volume_envelope_2
  .word volume_envelope_3
  .word volume_envelope_4
  .word volume_envelope_5

pitch_envelopes:
  .word pitch_envelope_0
  .word pitch_envelope_1
  .word pitch_envelope_2

duty_envelopes:
  .word duty_envelope_0
  .word duty_envelope_1
  .word duty_envelope_2
  .word duty_envelope_3

volume_envelope_0:
  .byte 0, ENV_STOP
volume_envelope_1:
  .byte 7,6,5,4,4,3,3,2,1,1,ENV_STOP
volume_envelope_2:
  .byte 11,10,9,8,7,7,0,0,0,0,ENV_STOP
volume_envelope_3:
  .byte 5,5,2,0,0,0,ENV_STOP
volume_envelope_4:
  .byte 4,3,0,4,3,0,4,3,0,4,3,0,4,3,0,4,3,0,4,3,0,ENV_STOP
volume_envelope_5:
  .byte 3,4,4,5,5,5,5,5,5,5,5,4,4,4,4,4,4,4,3,3,3,ENV_STOP

pitch_envelope_0:
  .byte 0, ENV_LOOP
pitch_envelope_1:
  .byte 0,0,0,0,0,0,0,0,0,0,ENV_STOP
pitch_envelope_2:
  .byte 0,0,0,0,0,0,0,0,0,-1,-1,1,1,1,1,-1,-1,-1,-1,1,1,1,1,-1,-1,-1,-1,1,1,1,1,-1
  .byte -1,-1,-1,1,1,1,1,-1,-1,-1,-1,1,1,1,1,-1,-1,-1,-1,1,1,1,1,-1,-1,-1,-1,1,1,1
  .byte 1,-1,-1,-1,-1,1,1,ENV_STOP

duty_envelope_0:
  .byte 0, DUTY_ENV_STOP
duty_envelope_1:
  .byte 128,64,DUTY_ENV_STOP
duty_envelope_2:
  .byte 128,DUTY_ENV_STOP
duty_envelope_3:
  .byte 128,DUTY_ENV_STOP

Square1:
  .byte STV,1,STP,0,SDU,3,STL,20,D1,STL,10,D1,D1,D1,D1,STL,20,D1,STL,10,D1,D1,D1,D1
  .byte STL,20,A1,STL,10,A1,A1,A1,A1,STL,20,A1,STL,10,A1,A1,A1,A1,STL,20,F1,STL,10
  .byte F1,F1,F1,F1,STL,20,F1,STL,10,F1,F1,F1,F1,STL,20,G1,STL,10,G1,G1,G1,G1,STL,20
  .byte G1,STL,10,G1,G1,G1,G1,STL,20,D1,STL,10,D1,D1,D1,D1,STL,20,D1,STL,10,D1,D1
  .byte D1,D1,STL,20,A1,STL,10,A1,A1,A1,A1,STL,20,A1,STL,10,A1,A1,A1,A1,STL,20,F1
  .byte STL,10,F1,F1,F1,F1,STL,20,F1,STL,10,F1,F1,F1,F1,STL,20,G1,STL,10,G1,G1,G1
  .byte G1,STL,20,G1,STL,10,G1,G1,G1,G1,STL,20,D1,STL,10,D1,D1,D1,D1,STL,20,D1,STL,10
  .byte D1,D1,D1,D1,STL,20,A1,STL,10,A1,A1,A1,A1,STL,20,A1,STL,10,A1,A1,A1,A1,STL,20
  .byte F1,STL,10,F1,F1,F1,F1,STL,20,F1,STL,10,F1,F1,F1,F1,STL,20,G1,STL,10,G1,G1
  .byte G1,G1,STL,20,G1,STL,10,G1,G1,G1,G1,STL,20,D1,STL,10,D1,D1,D1,D1,STL,20,D1
  .byte STL,10,D1,D1,D1,D1,STL,20,A1,STL,10,A1,A1,A1,A1,STL,20,A1,STL,10,A1,A1,A1
  .byte A1,STL,20,F1,STL,10,F1,F1,F1,F1,STL,20,F1,STL,10,F1,F1,F1,F1,STL,20,G1,STL,10
  .byte G1,G1,G1,G1,STL,20,G1,STL,10,G1,G1,G1,G1,STP,2,SDU,1,STL,20,DS1,STL,10,DS1
  .byte DS1,DS1,DS1,STL,20,DS1,STL,10,DS1,DS1,DS1,DS1,STL,20,G1,STL,10,G1,G1,G1,G1
  .byte STL,20,G1,STL,10,G1,G1,G1,G1,STL,20,DS1,STL,10,DS1,DS1,DS1,DS1,STL,20,DS1
  .byte STL,10,DS1,DS1,DS1,DS1,STL,20,C1,STL,10,C1,C1,C1,C1,STL,20,C1,STL,10,C1,C1
  .byte C1,C1,STL,20,DS1,STL,10,DS1,DS1,DS1,DS1,STL,20,DS1,STL,10,DS1,DS1,DS1,DS1
  .byte STL,20,G1,STL,10,G1,G1,G1,G1,STL,20,G1,STL,10,G1,G1,G1,G1,STL,20,DS1,STL,10
  .byte DS1,DS1,DS1,DS1,STL,20,DS1,STL,10,DS1,DS1,DS1,DS1,STL,20,C1,STL,10,C1,C1,C1
  .byte C1,STL,20,A1,STL,10,A1,A1,A1,A1
  .byte GOT
  .word Square1
Square2:
  .byte STV,1,STP,2,SDU,1,STL,20,D3,STL,10,A2,STL,30,A2,STL,20,D3,STL,10,A3,STL,30
  .byte A3,STL,20,E3,STL,10,A2,STL,30,A2,STL,20,E3,STL,10,A3,STL,30,A3,STL,20,F3,STL,10
  .byte C3,STL,30,C3,STL,20,F3,STL,10,C4,STL,30,C4,STL,20,B3,STL,10,G3,STL,30,G3,STL,10
  .byte B3,C4,D4,C4,B3,G3,STL,20,A3,STL,10,A2,STL,30,A2,STL,20,D3,STL,10,A3,STL,30
  .byte A3,STL,20,E3,STL,10,A2,STL,30,A2,STL,20,E3,STL,10,A3,STL,30,A3,STL,20,F3,STL,10
  .byte C3,STL,30,C3,STL,20,F3,STL,10,C4,STL,30,C4,STL,20,B3,STL,10,G3,STL,30,G3,STL,10
  .byte B3,A3,G3,F3,G3,A3,STL,20,D4,STL,10,A3,STL,30,A3,STL,50,D4,STL,5,C4,B3,STL,30
  .byte C4,STL,20,B3,STL,10,F3,STL,60,C4,STL,20,A3,STL,10,A3,STL,30,A3,STL,50,B3,STL,10
  .byte G3,STL,40,B3,STL,10,G3,B3,D4,E4,F4,G4,A4,F4,STL,20,D4,STL,10,A3,STL,30,A3
  .byte STL,10,D4,A3,D4,D4,A3,STL,5,C4,B3,STL,30,C4,STL,20,B3,STL,10,F3,C4,F3,C4,C4
  .byte F3,C4,STL,20,A3,STL,10,A3,STL,30,A3,STL,50,B3,STL,10,G3,STL,40,B3,STL,10,G3
  .byte B3,D4,E4,F4,G4,A4,F4,STL,20,DS4,STL,10,AS3,STL,30,AS3,DS4,F4,STL,50,G4,STL,10
  .byte D4,STL,30,G4,F4,STL,20,DS4,STL,10,AS3,STL,30,AS3,DS4,D4,STL,50,C4,STL,10,D4
  .byte STL,30,G4,F4,STL,20,DS4,STL,10,AS3,AS3,C4,D4,STL,30,DS4,F4,STL,10,G4,GS4,G4
  .byte F4,G4,D4,STL,30,G4,F4,STL,20,DS4,STL,10,AS3,STL,30,AS3,DS4,D4,C4,AS3,A3,CS4
  .byte GOT
  .word Square2
Triangle:
  .byte STV,2,STP,0,SDU,0,STL,30,D3,D3,D3,STL,10,D3,E3,F3,STL,30,A3,A3,A3,STL,10,A3
  .byte G3,E3,STL,30,F3,F3,F3,STL,10,F3,G3,A3,STL,30,G3,G3,STL,10,G3,F3,E3,F3,E3,C3
  .byte STL,30,D3,D3,D3,STL,10,D3,E3,F3,STL,30,A3,A3,A3,STL,10,A3,G3,E3,STL,30,F3
  .byte F3,F3,STL,10,F3,G3,A3,STL,30,G3,G3,STL,10,G3,F3,E3,F3,E3,C3,STL,30,D3,D3,D3
  .byte STL,10,D3,E3,F3,STL,30,A3,A3,A3,STL,10,A3,G3,E3,STL,30,F3,F3,F3,STL,10,F3
  .byte G3,A3,STL,30,G3,G3,STL,10,G3,F3,E3,F3,E3,C3,STL,30,D3,D3,D3,STL,10,D3,E3,F3
  .byte STL,30,A3,A3,A3,STL,10,A3,G3,E3,STL,30,F3,F3,F3,STL,10,F3,G3,A3,STL,30,G3
  .byte G3,STL,10,G3,F3,E3,F3,E3,C3,STL,30,DS3,STL,10,DS3,AS3,DS4,STL,30,DS3,STL,10
  .byte DS3,AS3,DS4,STL,30,G3,STL,10,G3,D4,G4,STL,30,G3,STL,10,G3,D4,G4,STL,30,DS3
  .byte STL,10,DS3,AS3,DS4,STL,30,DS3,STL,10,DS3,AS3,DS4,STL,30,C3,STL,10,C3,G3,C4
  .byte STL,30,C3,STL,10,C3,G3,C4,STL,30,DS3,STL,10,DS3,AS3,DS4,STL,30,DS3,STL,10
  .byte DS3,AS3,DS4,STL,30,G3,STL,10,G3,D4,G4,STL,30,G3,STL,10,G3,D4,G4,STL,30,DS3
  .byte STL,10,DS3,AS3,DS4,STL,30,DS3,STL,10,DS3,AS3,DS4,STL,30,C3,STL,10,C3,G3,C4
  .byte STL,30,A3,STL,10,A3,B3,CS4
  .byte GOT
  .word Triangle
Noise:
  .byte STV,3,STP,0,SDU,0,STL,20,0,STL,10,0,STV,4,STL,30,0,STV,3,STL,20,0,STL,10,0
  .byte STV,4,STL,30,0,STV,3,STL,20,0,STL,10,0,STV,4,STL,30,0,STV,3,STL,20,0,STL,10
  .byte 0,STV,4,STL,30,0,STV,3,STL,20,0,STL,10,0,STV,4,STL,30,0,STV,3,STL,20,0,STL,10
  .byte 0,STV,4,STL,30,0,STV,3,STL,20,0,STL,10,0,0,0,0,0,0,0,0,0,0,STL,20,0,STL,10
  .byte 0,STV,4,STL,30,0,STV,3,STL,20,0,STL,10,0,STV,4,STL,30,0,STV,3,STL,20,0,STL,10
  .byte 0,STV,4,STL,30,0,STV,3,STL,20,0,STL,10,0,STV,4,STL,30,0,STV,3,STL,20,0,STL,10
  .byte 0,STV,4,STL,30,0,STV,3,STL,20,0,STL,10,0,STV,4,STL,30,0,STV,3,STL,20,0,STL,10
  .byte 0,STV,4,STL,30,0,STV,3,STL,20,0,STL,10,0,STV,4,STL,30,0,STV,3,STL,20,0,STL,10
  .byte 0,STV,4,STL,30,0,STV,3,STL,20,0,STL,10,0,STV,4,STL,30,0,STV,3,STL,20,0,STL,10
  .byte 0,STV,4,STL,30,0,STV,3,STL,20,0,STL,10,0,STV,4,STL,30,0,STV,3,STL,20,0,STL,10
  .byte 0,STV,4,STL,30,0,STV,3,STL,20,0,STL,10,0,STV,4,STL,30,0,STV,3,STL,20,0,STL,10
  .byte 0,0,0,0,0,0,0,0,0,0,STL,20,0,STL,10,0,STV,4,STL,30,0,STV,3,STL,20,0,STL,10
  .byte 0,STV,4,STL,30,0,STV,3,STL,20,0,STL,10,0,STV,4,STL,30,0,STV,3,STL,20,0,STL,10
  .byte 0,STV,4,STL,30,0,STV,3,STL,20,0,STL,10,0,STV,4,STL,30,0,STV,3,STL,20,0,STL,10
  .byte 0,STV,4,STL,30,0,STV,3,STL,20,0,STL,10,0,STV,4,STL,30,0,STV,3,STL,20,0,STL,10
  .byte 0,STV,4,STL,30,0,STV,3,STL,20,0,STL,10,0,STV,4,STL,30,0,STV,3,STL,20,0,STL,10
  .byte 0,STV,4,STL,30,0,STV,3,STL,20,0,STL,10,0,STV,4,STL,30,0,STV,3,STL,20,0,STL,10
  .byte 0,STV,4,STL,30,0,STV,3,STL,20,0,STL,10,0,STV,4,STL,30,0,STV,3,STL,20,0,STL,10
  .byte 0,STV,4,STL,30,0,STV,3,STL,20,0,STL,10,0,0,0,0,0,0,0,0,0,0,STL,20,0,STL,10
  .byte 0,STV,4,STL,30,0,STV,3,STL,20,0,STL,10,0,STV,4,STL,30,0,STV,3,STL,20,0,STL,10
  .byte 0,STV,4,STL,30,0,STV,3,STL,20,0,STL,10,0,STV,4,STL,30,0,STV,3,STL,20,0,STL,10
  .byte 0,STV,4,STL,30,0,STV,3,STL,20,0,STL,10,0,STV,4,STL,30,0,STV,3,STL,20,0,STL,10
  .byte 0,STV,4,STL,30,0,STV,3,STL,20,0,STL,10,0,STV,4,STL,30,0
  .byte GOT
  .word Noise
